<svg xmlns="http://www.w3.org/2000/svg" xmlns:xlink="http://www.w3.org/1999/xlink" version="1.1" width="256" height="256" viewBox="0 0 256 256" xml:space="preserve">

<defs>
</defs>
<g style="stroke: none; stroke-width: 0; stroke-dasharray: none; stroke-linecap: butt; stroke-linejoin: miter; stroke-miterlimit: 10; fill: none; fill-rule: nonzero; opacity: 1;" transform="translate(1.4065934065934016 1.4065934065934016) scale(2.81 2.81)" >
	<path d="M 79.179 79.667 V 10.412 C 79.179 5.214 74.965 1 69.767 1 H 17.376 c -3.62 0 -6.554 2.934 -6.554 6.554 v 64.977 C 11.56 76.335 49.913 77.635 79.179 79.667 z" style="stroke: none; stroke-width: 1; stroke-dasharray: none; stroke-linecap: butt; stroke-linejoin: miter; stroke-miterlimit: 10; fill: rgb(31,159,133); fill-rule: nonzero; opacity: 1;" transform=" matrix(1 0 0 1 0 0) " stroke-linecap="round" />
	<path d="M 69.846 1 v 76.387 l 9.333 2.28 V 10.412 C 79.179 5.214 74.965 1 69.767 1" style="stroke: none; stroke-width: 1; stroke-dasharray: none; stroke-linecap: butt; stroke-linejoin: miter; stroke-miterlimit: 10; fill: rgb(37,131,113); fill-rule: nonzero; opacity: 1;" transform=" matrix(1 0 0 1 0 0) " stroke-linecap="round" />
	<path d="M 15.423 74.728 h -2.405 c -1.213 0 -2.197 -0.983 -2.197 -2.197 v 0 c 0 -1.213 0.983 -2.197 2.197 -2.197 h 56.828 c 5.154 0 9.333 4.178 9.333 9.333 v 0 C 79.179 84.822 75 89 69.846 89 H 13.018 c -1.213 0 -2.197 -0.983 -2.197 -2.197 v 0 c 0 -1.213 0.983 -2.197 2.197 -2.197 h 2.405 V 74.728 z" style="stroke: none; stroke-width: 1; stroke-dasharray: none; stroke-linecap: butt; stroke-linejoin: miter; stroke-miterlimit: 10; fill: rgb(37,131,113); fill-rule: nonzero; opacity: 1;" transform=" matrix(1 0 0 1 0 0) " stroke-linecap="round" />
	<path d="M 79.179 80.667 c -0.553 0 -1 -0.447 -1 -1 V 10.412 C 78.179 5.773 74.405 2 69.767 2 H 17.375 c -3.063 0 -5.554 2.492 -5.554 5.554 v 64.977 c 0 0.553 -0.448 1 -1 1 s -1 -0.447 -1 -1 V 7.554 C 9.821 3.389 13.21 0 17.375 0 h 52.391 c 5.741 0 10.412 4.671 10.412 10.412 v 69.255 C 80.179 80.22 79.731 80.667 79.179 80.667 z" style="stroke: none; stroke-width: 1; stroke-dasharray: none; stroke-linecap: butt; stroke-linejoin: miter; stroke-miterlimit: 10; fill: rgb(0,0,0); fill-rule: nonzero; opacity: 1;" transform=" matrix(1 0 0 1 0 0) " stroke-linecap="round" />
	<path d="M 58.99 43.738 H 27.253 c -1.7 0 -3.079 -1.379 -3.079 -3.079 V 21.552 c 0 -1.7 1.379 -3.079 3.079 -3.079 H 58.99 c 1.7 0 3.079 1.379 3.079 3.079 v 19.107 C 62.069 42.359 60.691 43.738 58.99 43.738 z" style="stroke: none; stroke-width: 1; stroke-dasharray: none; stroke-linecap: butt; stroke-linejoin: miter; stroke-miterlimit: 10; fill: rgb(78,222,193); fill-rule: nonzero; opacity: 1;" transform=" matrix(1 0 0 1 0 0) " stroke-linecap="round" />
	<path d="M 69.263 84.607 h -55.84 v -9.879 h 55.84 c 2.728 0 4.94 2.212 4.94 4.94 v 0 C 74.203 82.395 71.991 84.607 69.263 84.607 z" style="stroke: none; stroke-width: 1; stroke-dasharray: none; stroke-linecap: butt; stroke-linejoin: miter; stroke-miterlimit: 10; fill: rgb(159,227,213); fill-rule: nonzero; opacity: 1;" transform=" matrix(1 0 0 1 0 0) " stroke-linecap="round" />
	<path d="M 69.846 90 H 13.018 c -1.763 0 -3.197 -1.434 -3.197 -3.196 c 0 -1.56 1.122 -2.862 2.602 -3.142 v -7.99 c -1.479 -0.279 -2.602 -1.581 -2.602 -3.141 c 0 -1.763 1.434 -3.197 3.197 -3.197 h 56.828 c 5.697 0 10.333 4.636 10.333 10.333 S 75.543 90 69.846 90 z M 13.018 85.606 c -0.66 0 -1.197 0.537 -1.197 1.197 c 0 0.659 0.537 1.196 1.197 1.196 h 56.828 c 4.595 0 8.333 -3.738 8.333 -8.333 s -3.738 -8.333 -8.333 -8.333 H 13.018 c -0.66 0 -1.197 0.537 -1.197 1.197 c 0 0.659 0.537 1.196 1.197 1.196 h 0.405 c 0.552 0 1 0.447 1 1 v 9.879 c 0 0.553 -0.448 1 -1 1 H 13.018 z" style="stroke: none; stroke-width: 1; stroke-dasharray: none; stroke-linecap: butt; stroke-linejoin: miter; stroke-miterlimit: 10; fill: rgb(0,0,0); fill-rule: nonzero; opacity: 1;" transform=" matrix(1 0 0 1 0 0) " stroke-linecap="round" />
	<path d="M 69.846 71.334 c -0.553 0 -1 -0.447 -1 -1 V 18.473 c 0 -0.552 0.447 -1 1 -1 s 1 0.448 1 1 v 51.861 C 70.846 70.887 70.398 71.334 69.846 71.334 z" style="stroke: none; stroke-width: 1; stroke-dasharray: none; stroke-linecap: butt; stroke-linejoin: miter; stroke-miterlimit: 10; fill: rgb(0,0,0); fill-rule: nonzero; opacity: 1;" transform=" matrix(1 0 0 1 0 0) " stroke-linecap="round" />
	<path d="M 69.264 85.606 H 13.423 c -0.552 0 -1 -0.447 -1 -1 v -9.879 c 0 -0.553 0.448 -1 1 -1 h 55.841 c 3.275 0 5.939 2.664 5.939 5.939 S 72.539 85.606 69.264 85.606 z M 14.423 83.606 h 54.841 c 2.172 0 3.939 -1.768 3.939 -3.939 s -1.768 -3.939 -3.939 -3.939 H 14.423 V 83.606 z" style="stroke: none; stroke-width: 1; stroke-dasharray: none; stroke-linecap: butt; stroke-linejoin: miter; stroke-miterlimit: 10; fill: rgb(0,0,0); fill-rule: nonzero; opacity: 1;" transform=" matrix(1 0 0 1 0 0) " stroke-linecap="round" />
	<path d="M 58.99 44.738 H 27.253 c -2.249 0 -4.079 -1.83 -4.079 -4.079 V 21.552 c 0 -2.249 1.83 -4.079 4.079 -4.079 H 58.99 c 2.249 0 4.079 1.83 4.079 4.079 v 19.107 C 63.069 42.908 61.239 44.738 58.99 44.738 z M 27.253 19.473 c -1.146 0 -2.079 0.933 -2.079 2.079 v 19.107 c 0 1.146 0.933 2.079 2.079 2.079 H 58.99 c 1.146 0 2.079 -0.933 2.079 -2.079 V 21.552 c 0 -1.146 -0.933 -2.079 -2.079 -2.079 H 27.253 z" style="stroke: none; stroke-width: 1; stroke-dasharray: none; stroke-linecap: butt; stroke-linejoin: miter; stroke-miterlimit: 10; fill: rgb(0,0,0); fill-rule: nonzero; opacity: 1;" transform=" matrix(1 0 0 1 0 0) " stroke-linecap="round" />
	<path d="M 62.069 53.308 H 24.174 c -0.552 0 -1 -0.447 -1 -1 s 0.448 -1 1 -1 h 37.896 c 0.553 0 1 0.447 1 1 S 62.622 53.308 62.069 53.308 z" style="stroke: none; stroke-width: 1; stroke-dasharray: none; stroke-linecap: butt; stroke-linejoin: miter; stroke-miterlimit: 10; fill: rgb(0,0,0); fill-rule: nonzero; opacity: 1;" transform=" matrix(1 0 0 1 0 0) " stroke-linecap="round" />
	<path d="M 62.069 62.511 H 24.174 c -0.552 0 -1 -0.447 -1 -1 s 0.448 -1 1 -1 h 37.896 c 0.553 0 1 0.447 1 1 S 62.622 62.511 62.069 62.511 z" style="stroke: none; stroke-width: 1; stroke-dasharray: none; stroke-linecap: butt; stroke-linejoin: miter; stroke-miterlimit: 10; fill: rgb(0,0,0); fill-rule: nonzero; opacity: 1;" transform=" matrix(1 0 0 1 0 0) " stroke-linecap="round" />
	<path d="M 69.846 9.999 c -0.553 0 -1 -0.448 -1 -1 V 1 c 0 -0.552 0.447 -1 1 -1 s 1 0.448 1 1 v 7.999 C 70.846 9.551 70.398 9.999 69.846 9.999 z" style="stroke: none; stroke-width: 1; stroke-dasharray: none; stroke-linecap: butt; stroke-linejoin: miter; stroke-miterlimit: 10; fill: rgb(0,0,0); fill-rule: nonzero; opacity: 1;" transform=" matrix(1 0 0 1 0 0) " stroke-linecap="round" />
</g>
</svg>